<svg xmlns="http://www.w3.org/2000/svg" xmlns:xlink="http://www.w3.org/1999/xlink" width="500" zoomAndPan="magnify" viewBox="0 0 375 374.999991" height="500" preserveAspectRatio="xMidYMid meet" version="1.0"><defs><g/><clipPath id="87ddf826f6"><path d="M 73.914062 73.023438 L 302.871094 73.023438 L 302.871094 301.976562 L 73.914062 301.976562 Z M 73.914062 73.023438 " clip-rule="nonzero"/></clipPath><clipPath id="3db8430830"><path d="M 187.5 0 C 83.945312 0 0 83.945312 0 187.5 C 0 291.054688 83.945312 375 187.5 375 C 291.054688 375 375 291.054688 375 187.5 C 375 83.945312 291.054688 0 187.5 0 " clip-rule="nonzero"/></clipPath><clipPath id="78a47ee30a"><path d="M 164.441406 121.753906 L 283.691406 121.753906 L 283.691406 139.003906 L 164.441406 139.003906 Z M 164.441406 121.753906 " clip-rule="nonzero"/></clipPath></defs><g clip-path="url(#87ddf826f6)"><path fill="#0000ff" d="M 73.914062 73.023438 L 302.871094 73.023438 L 302.871094 301.976562 L 73.914062 301.976562 Z M 73.914062 73.023438 " fill-opacity="1" fill-rule="nonzero"/></g><g clip-path="url(#3db8430830)"><rect x="-37.5" width="450" fill="#0000ff" y="-37.499999" height="449.999989" fill-opacity="1"/></g><g clip-path="url(#78a47ee30a)"><path fill="#ffffff" d="M 164.441406 121.753906 L 283.691406 121.753906 L 283.691406 139.003906 L 164.441406 139.003906 Z M 164.441406 121.753906 " fill-opacity="1" fill-rule="nonzero"/></g><g fill="#ffffff" fill-opacity="1"><g transform="translate(24.572199, 207.264174)"><g><path d="M 27.910156 1.042969 C 38.816406 1.042969 45.148438 -2.40625 49.800781 -6.253906 L 49.800781 -33.84375 L 28.550781 -33.84375 L 28.550781 -22.617188 L 36.808594 -22.617188 L 36.808594 -12.589844 C 34.886719 -11.226562 32 -10.183594 28.308594 -10.183594 L 27.585938 -10.183594 C 18.445312 -10.183594 16.359375 -17.160156 16.359375 -29.671875 L 16.359375 -32.878906 C 16.359375 -45.390625 18.523438 -52.367188 27.105469 -52.367188 L 27.828125 -52.367188 C 35.046875 -52.367188 36.890625 -47.394531 36.890625 -38.816406 L 49.882812 -38.816406 L 49.882812 -41.703125 C 49.882812 -57.339844 42.023438 -63.59375 27.105469 -63.59375 C 10.90625 -63.59375 3.128906 -54.535156 3.128906 -32.878906 L 3.128906 -29.671875 C 3.128906 -8.019531 10.90625 1.042969 27.910156 1.042969 Z M 27.910156 1.042969 "/></g></g></g><g fill="#ffffff" fill-opacity="1"><g transform="translate(97.708835, 207.264174)"><g><path d="M 29.511719 0 L 40.898438 0 L 40.097656 -12.03125 L 40.097656 -27.347656 C 40.097656 -37.613281 35.929688 -43.546875 22.054688 -43.546875 C 8.019531 -43.546875 4.011719 -36.570312 4.011719 -29.191406 L 4.011719 -28.46875 L 15.960938 -28.46875 C 15.960938 -31.277344 17.082031 -33.921875 21.652344 -33.921875 C 25.984375 -33.921875 27.347656 -31.835938 27.425781 -27.667969 L 17.644531 -26.144531 C 8.742188 -24.78125 2.40625 -21.734375 2.40625 -12.511719 L 2.40625 -11.707031 C 2.40625 -4.890625 5.855469 1.042969 15.398438 1.042969 C 21.332031 1.042969 25.742188 -1.203125 28.710938 -4.410156 Z M 20.050781 -9.222656 C 16.359375 -9.222656 14.996094 -11.386719 14.996094 -13.554688 L 14.996094 -14.035156 C 14.996094 -16.601562 16.28125 -18.445312 20.210938 -19.085938 L 27.425781 -20.210938 L 27.425781 -12.429688 C 26.0625 -10.988281 23.65625 -9.222656 20.050781 -9.222656 Z M 20.050781 -9.222656 "/></g></g></g><g fill="#ffffff" fill-opacity="1"><g transform="translate(160.902091, 207.264174)"><g><path d="M 4.332031 0 L 17 0 L 17 -64.15625 L 4.332031 -64.15625 Z M 4.332031 0 "/></g></g></g><g fill="#ffffff" fill-opacity="1"><g transform="translate(201.401958, 207.264174)"><g><path d="M 22.292969 1.042969 C 36.007812 1.042969 42.183594 -7.539062 42.183594 -19.808594 L 42.183594 -22.695312 C 42.183594 -34.964844 36.007812 -43.546875 22.292969 -43.546875 C 8.660156 -43.546875 2.40625 -34.964844 2.40625 -22.695312 L 2.40625 -19.808594 C 2.40625 -7.539062 8.660156 1.042969 22.292969 1.042969 Z M 22.292969 -9.863281 C 17.324219 -9.863281 15.078125 -13.554688 15.078125 -19.808594 L 15.078125 -22.695312 C 15.078125 -28.949219 17.324219 -32.640625 22.292969 -32.640625 C 27.347656 -32.640625 29.511719 -28.949219 29.511719 -22.695312 L 29.511719 -19.808594 C 29.511719 -13.554688 27.347656 -9.863281 22.292969 -9.863281 Z M 22.292969 -9.863281 "/></g></g></g><g fill="#ffffff" fill-opacity="1"><g transform="translate(265.156528, 207.264174)"><g><path d="M 4.332031 0 L 17 0 L 17 -42.503906 L 4.332031 -42.503906 Z M 17.324219 -61.910156 L 4.011719 -61.910156 L 4.011719 -48.519531 L 17.324219 -48.519531 Z M 17.324219 -61.910156 "/></g></g></g><g fill="#ffffff" fill-opacity="1"><g transform="translate(305.656396, 207.264174)"><g><path d="M 21.171875 -8.582031 C 16.921875 -8.582031 15.398438 -10.667969 15.398438 -13.472656 L 2.808594 -13.472656 L 2.808594 -13.070312 C 2.808594 -4.8125 8.742188 1.042969 21.171875 1.042969 C 33.441406 1.042969 39.617188 -4.410156 39.617188 -13.230469 L 39.617188 -13.953125 C 39.617188 -22.9375 32.558594 -25.101562 21.894531 -25.984375 C 17 -26.382812 15.796875 -27.507812 15.796875 -30.074219 C 15.796875 -32.398438 17.644531 -33.921875 21.171875 -33.921875 C 25.019531 -33.921875 26.625 -31.917969 26.625 -28.550781 L 39.054688 -28.550781 L 39.054688 -28.949219 C 39.054688 -38.09375 33.683594 -43.546875 21.171875 -43.546875 C 11.066406 -43.546875 3.289062 -39.457031 3.289062 -29.671875 L 3.289062 -28.949219 C 3.289062 -20.929688 8.5 -17.964844 20.53125 -17 C 25.503906 -16.601562 26.867188 -15.398438 26.867188 -12.75 C 26.867188 -10.34375 25.261719 -8.582031 21.171875 -8.582031 Z M 21.171875 -8.582031 "/></g></g></g><g fill="#ffffff" fill-opacity="1"><g transform="translate(195.866237, 281.507475)"><g/></g></g><g fill="#ffffff" fill-opacity="1"><g transform="translate(39.224184, 279.877518)"><g><path d="M 16.488281 -31.730469 L 16.488281 -15.953125 C 14.972656 -17.335938 13.011719 -18.179688 10.738281 -18.179688 C 5.703125 -18.179688 1.695312 -14.082031 1.695312 -8.914062 C 1.695312 -3.742188 5.703125 0.355469 10.738281 0.355469 C 13.011719 0.355469 14.972656 -0.488281 16.488281 -1.871094 L 16.488281 0 L 20.722656 0 L 20.722656 -31.730469 Z M 11.273438 -3.566406 C 8.289062 -3.566406 5.925781 -5.925781 5.925781 -8.914062 C 5.925781 -11.898438 8.289062 -14.261719 11.273438 -14.261719 C 14.214844 -14.261719 16.621094 -11.898438 16.621094 -8.914062 C 16.621094 -5.925781 14.214844 -3.566406 11.273438 -3.566406 Z M 11.273438 -3.566406 "/></g></g></g><g fill="#ffffff" fill-opacity="1"><g transform="translate(73.498131, 279.877518)"><g><path d="M 20.632812 -9 C 20.542969 -14.347656 16.621094 -18.179688 11.230469 -18.179688 C 5.792969 -18.179688 1.695312 -14.261719 1.695312 -8.914062 C 1.695312 -3.566406 5.75 0.355469 11.273438 0.355469 C 15.863281 0.355469 19.296875 -2.363281 20.320312 -6.238281 L 16.085938 -6.238281 C 15.328125 -4.367188 13.546875 -3.164062 11.273438 -3.164062 C 8.289062 -3.164062 6.195312 -5.257812 5.972656 -8.242188 L 20.589844 -8.242188 Z M 11.273438 -14.617188 C 13.589844 -14.617188 15.242188 -13.324219 15.996094 -11.273438 L 6.328125 -11.273438 C 7.128906 -13.28125 8.867188 -14.617188 11.273438 -14.617188 Z M 11.273438 -14.617188 "/></g></g></g><g fill="#ffffff" fill-opacity="1"><g transform="translate(106.30235, 279.877518)"><g><path d="M 12.65625 -18.179688 C 10.339844 -18.179688 8.421875 -17.113281 7.175781 -15.375 L 7.175781 -17.824219 L 2.941406 -17.824219 L 2.941406 0 L 7.175781 0 L 7.175781 -9.046875 C 7.175781 -12.164062 9.492188 -14.261719 12.566406 -14.261719 C 13.144531 -14.261719 13.636719 -14.171875 14.082031 -14.082031 L 14.082031 -18.046875 C 13.636719 -18.136719 13.144531 -18.179688 12.65625 -18.179688 Z M 12.65625 -18.179688 "/></g></g></g><g fill="#ffffff" fill-opacity="1"><g transform="translate(131.045259, 279.877518)"><g><path d="M 5.257812 -20.988281 C 6.640625 -20.988281 7.796875 -22.148438 7.796875 -23.484375 C 7.796875 -24.910156 6.640625 -26.023438 5.257812 -26.023438 C 3.875 -26.023438 2.71875 -24.910156 2.71875 -23.484375 C 2.71875 -22.148438 3.875 -20.988281 5.257812 -20.988281 Z M 3.164062 0 L 7.351562 0 L 7.351562 -17.824219 L 3.164062 -17.824219 Z M 3.164062 0 "/></g></g></g><g fill="#ffffff" fill-opacity="1"><g transform="translate(152.180626, 279.877518)"><g><path d="M 13.902344 -17.824219 L 9.222656 -4.589844 L 4.589844 -17.824219 L 0.0898438 -17.824219 L 7.21875 0 L 11.230469 0 L 18.40625 -17.824219 Z M 13.902344 -17.824219 "/></g></g></g><g fill="#ffffff" fill-opacity="1"><g transform="translate(181.288212, 279.877518)"><g><path d="M 22.371094 -3.476562 C 21.523438 -3.476562 20.722656 -3.921875 20.722656 -5.480469 L 20.722656 -17.824219 L 16.488281 -17.824219 L 16.488281 -15.953125 C 14.972656 -17.335938 13.011719 -18.179688 10.738281 -18.179688 C 5.703125 -18.179688 1.695312 -14.082031 1.695312 -8.914062 C 1.695312 -3.742188 5.703125 0.355469 10.738281 0.355469 C 13.324219 0.355469 15.597656 -0.800781 17.113281 -2.628906 C 18.003906 -0.847656 19.742188 0.355469 21.925781 0.355469 C 22.460938 0.355469 22.949219 0.222656 23.351562 0 L 23.351562 -3.476562 Z M 11.273438 -3.566406 C 8.289062 -3.566406 5.925781 -5.925781 5.925781 -8.914062 C 5.925781 -11.898438 8.289062 -14.261719 11.273438 -14.261719 C 14.214844 -14.261719 16.621094 -11.898438 16.621094 -8.914062 C 16.621094 -5.925781 14.214844 -3.566406 11.273438 -3.566406 Z M 11.273438 -3.566406 "/></g></g></g><g fill="#ffffff" fill-opacity="1"><g transform="translate(215.873918, 279.877518)"><g><path d="M 12.386719 -14.261719 L 12.386719 -17.824219 L 7.886719 -17.824219 L 7.886719 -25.132812 L 3.652344 -25.132812 L 3.652344 -17.824219 L 0.714844 -17.824219 L 0.714844 -14.261719 L 3.652344 -14.261719 L 3.652344 -5.527344 C 3.652344 -2.226562 6.460938 0.355469 9.714844 0.355469 C 10.738281 0.355469 11.855469 0.0898438 12.300781 -0.222656 L 12.300781 -3.476562 L 10.25 -3.476562 C 8.914062 -3.476562 7.886719 -4.457031 7.886719 -6.015625 L 7.886719 -14.261719 Z M 12.386719 -14.261719 "/></g></g></g><g fill="#ffffff" fill-opacity="1"><g transform="translate(240.037843, 279.877518)"><g><path d="M 5.257812 -20.988281 C 6.640625 -20.988281 7.796875 -22.148438 7.796875 -23.484375 C 7.796875 -24.910156 6.640625 -26.023438 5.257812 -26.023438 C 3.875 -26.023438 2.71875 -24.910156 2.71875 -23.484375 C 2.71875 -22.148438 3.875 -20.988281 5.257812 -20.988281 Z M 3.164062 0 L 7.351562 0 L 7.351562 -17.824219 L 3.164062 -17.824219 Z M 3.164062 0 "/></g></g></g><g fill="#ffffff" fill-opacity="1"><g transform="translate(261.1732, 279.877518)"><g><path d="M 13.902344 -17.824219 L 9.222656 -4.589844 L 4.589844 -17.824219 L 0.0898438 -17.824219 L 7.21875 0 L 11.230469 0 L 18.40625 -17.824219 Z M 13.902344 -17.824219 "/></g></g></g><g fill="#ffffff" fill-opacity="1"><g transform="translate(290.280797, 279.877518)"><g><path d="M 20.632812 -9 C 20.542969 -14.347656 16.621094 -18.179688 11.230469 -18.179688 C 5.792969 -18.179688 1.695312 -14.261719 1.695312 -8.914062 C 1.695312 -3.566406 5.75 0.355469 11.273438 0.355469 C 15.863281 0.355469 19.296875 -2.363281 20.320312 -6.238281 L 16.085938 -6.238281 C 15.328125 -4.367188 13.546875 -3.164062 11.273438 -3.164062 C 8.289062 -3.164062 6.195312 -5.257812 5.972656 -8.242188 L 20.589844 -8.242188 Z M 11.273438 -14.617188 C 13.589844 -14.617188 15.242188 -13.324219 15.996094 -11.273438 L 6.328125 -11.273438 C 7.128906 -13.28125 8.867188 -14.617188 11.273438 -14.617188 Z M 11.273438 -14.617188 "/></g></g></g><g fill="#ffffff" fill-opacity="1"><g transform="translate(323.085026, 279.877518)"><g><path d="M 7.976562 0.355469 C 11.542969 0.355469 14.082031 -1.917969 14.082031 -5.125 C 14.082031 -8.511719 11.230469 -9.847656 8.824219 -10.828125 C 7.085938 -11.542969 6.238281 -11.898438 6.238281 -13.011719 C 6.238281 -14.039062 6.953125 -14.617188 8.15625 -14.617188 C 9.3125 -14.617188 10.339844 -14.082031 10.828125 -13.28125 L 13.503906 -15.464844 C 12.566406 -16.976562 10.292969 -18.179688 7.886719 -18.179688 C 4.546875 -18.179688 2.050781 -15.910156 2.050781 -12.789062 C 2.050781 -9.625 4.679688 -8.289062 7.351562 -7.308594 C 9.222656 -6.550781 10.070312 -6.058594 10.070312 -5.035156 C 10.070312 -3.921875 9.089844 -3.296875 7.84375 -3.296875 C 6.550781 -3.296875 5.125 -3.921875 4.589844 -5.304688 L 1.160156 -3.742188 C 2.003906 -1.292969 4.992188 0.355469 7.976562 0.355469 Z M 7.976562 0.355469 "/></g></g></g><g fill="#ffffff" fill-opacity="1"><g transform="translate(194.028918, 314.347622)"><g/></g></g></svg>